<mxfile host="Electron" modified="2023-12-27T11:02:38.501Z" agent="Mozilla/5.0 (Windows NT 10.0; Win64; x64) AppleWebKit/537.36 (KHTML, like Gecko) draw.io/21.6.8 Chrome/114.0.5735.289 Electron/25.5.0 Safari/537.36" etag="7RC-MhCGNlUAo9hsPD80" version="21.6.8" type="device">
  <diagram id="r3Fdp3pJBHH0uUYBAjYY" name="Страница 1">
    <mxGraphModel dx="1098" dy="828" grid="1" gridSize="10" guides="1" tooltips="1" connect="1" arrows="1" fold="1" page="1" pageScale="1" pageWidth="827" pageHeight="1169" math="0" shadow="0">
      <root>
        <mxCell id="0" />
        <mxCell id="1" parent="0" />
        <mxCell id="6R78JGKRippowm32MuOg-1" value="genres" style="swimlane;fontStyle=0;childLayout=stackLayout;horizontal=1;startSize=30;horizontalStack=0;resizeParent=1;resizeParentMax=0;resizeLast=0;collapsible=1;marginBottom=0;whiteSpace=wrap;html=1;shadow=0;rounded=1;labelBackgroundColor=none;" parent="1" vertex="1">
          <mxGeometry x="140" y="70" width="140" height="90" as="geometry" />
        </mxCell>
        <mxCell id="6R78JGKRippowm32MuOg-2" value="ID" style="text;align=left;verticalAlign=middle;spacingLeft=4;spacingRight=4;overflow=hidden;points=[[0,0.5],[1,0.5]];portConstraint=eastwest;rotatable=0;whiteSpace=wrap;html=1;shadow=0;rounded=1;labelBackgroundColor=none;" parent="6R78JGKRippowm32MuOg-1" vertex="1">
          <mxGeometry y="30" width="140" height="30" as="geometry" />
        </mxCell>
        <mxCell id="6R78JGKRippowm32MuOg-3" value="name" style="text;align=left;verticalAlign=middle;spacingLeft=4;spacingRight=4;overflow=hidden;points=[[0,0.5],[1,0.5]];portConstraint=eastwest;rotatable=0;whiteSpace=wrap;html=1;shadow=0;rounded=1;labelBackgroundColor=none;" parent="6R78JGKRippowm32MuOg-1" vertex="1">
          <mxGeometry y="60" width="140" height="30" as="geometry" />
        </mxCell>
        <mxCell id="6R78JGKRippowm32MuOg-4" value="artists" style="swimlane;fontStyle=0;childLayout=stackLayout;horizontal=1;startSize=30;horizontalStack=0;resizeParent=1;resizeParentMax=0;resizeLast=0;collapsible=1;marginBottom=0;whiteSpace=wrap;html=1;shadow=0;rounded=1;labelBackgroundColor=none;" parent="1" vertex="1">
          <mxGeometry x="520" y="100" width="140" height="90" as="geometry" />
        </mxCell>
        <mxCell id="6R78JGKRippowm32MuOg-5" value="ID" style="text;align=left;verticalAlign=middle;spacingLeft=4;spacingRight=4;overflow=hidden;points=[[0,0.5],[1,0.5]];portConstraint=eastwest;rotatable=0;whiteSpace=wrap;html=1;shadow=0;rounded=1;labelBackgroundColor=none;" parent="6R78JGKRippowm32MuOg-4" vertex="1">
          <mxGeometry y="30" width="140" height="30" as="geometry" />
        </mxCell>
        <mxCell id="6R78JGKRippowm32MuOg-6" value="name" style="text;align=left;verticalAlign=middle;spacingLeft=4;spacingRight=4;overflow=hidden;points=[[0,0.5],[1,0.5]];portConstraint=eastwest;rotatable=0;whiteSpace=wrap;html=1;shadow=0;rounded=1;labelBackgroundColor=none;" parent="6R78JGKRippowm32MuOg-4" vertex="1">
          <mxGeometry y="60" width="140" height="30" as="geometry" />
        </mxCell>
        <mxCell id="6R78JGKRippowm32MuOg-8" value="albums" style="swimlane;fontStyle=0;childLayout=stackLayout;horizontal=1;startSize=30;horizontalStack=0;resizeParent=1;resizeParentMax=0;resizeLast=0;collapsible=1;marginBottom=0;whiteSpace=wrap;html=1;shadow=0;rounded=1;labelBackgroundColor=none;" parent="1" vertex="1">
          <mxGeometry x="140" y="250" width="140" height="120" as="geometry" />
        </mxCell>
        <mxCell id="6R78JGKRippowm32MuOg-9" value="ID" style="text;align=left;verticalAlign=middle;spacingLeft=4;spacingRight=4;overflow=hidden;points=[[0,0.5],[1,0.5]];portConstraint=eastwest;rotatable=0;whiteSpace=wrap;html=1;shadow=0;rounded=1;labelBackgroundColor=none;" parent="6R78JGKRippowm32MuOg-8" vertex="1">
          <mxGeometry y="30" width="140" height="30" as="geometry" />
        </mxCell>
        <mxCell id="6R78JGKRippowm32MuOg-10" value="name" style="text;align=left;verticalAlign=middle;spacingLeft=4;spacingRight=4;overflow=hidden;points=[[0,0.5],[1,0.5]];portConstraint=eastwest;rotatable=0;whiteSpace=wrap;html=1;shadow=0;rounded=1;labelBackgroundColor=none;" parent="6R78JGKRippowm32MuOg-8" vertex="1">
          <mxGeometry y="60" width="140" height="30" as="geometry" />
        </mxCell>
        <mxCell id="6R78JGKRippowm32MuOg-11" value="date" style="text;align=left;verticalAlign=middle;spacingLeft=4;spacingRight=4;overflow=hidden;points=[[0,0.5],[1,0.5]];portConstraint=eastwest;rotatable=0;whiteSpace=wrap;html=1;shadow=0;rounded=1;labelBackgroundColor=none;" parent="6R78JGKRippowm32MuOg-8" vertex="1">
          <mxGeometry y="90" width="140" height="30" as="geometry" />
        </mxCell>
        <mxCell id="6R78JGKRippowm32MuOg-13" value="tracks" style="swimlane;fontStyle=0;childLayout=stackLayout;horizontal=1;startSize=30;horizontalStack=0;resizeParent=1;resizeParentMax=0;resizeLast=0;collapsible=1;marginBottom=0;whiteSpace=wrap;html=1;shadow=0;rounded=1;labelBackgroundColor=none;" parent="1" vertex="1">
          <mxGeometry x="140" y="420" width="140" height="150" as="geometry" />
        </mxCell>
        <mxCell id="6R78JGKRippowm32MuOg-14" value="ID" style="text;align=left;verticalAlign=middle;spacingLeft=4;spacingRight=4;overflow=hidden;points=[[0,0.5],[1,0.5]];portConstraint=eastwest;rotatable=0;whiteSpace=wrap;html=1;shadow=0;rounded=1;labelBackgroundColor=none;" parent="6R78JGKRippowm32MuOg-13" vertex="1">
          <mxGeometry y="30" width="140" height="30" as="geometry" />
        </mxCell>
        <mxCell id="6R78JGKRippowm32MuOg-15" value="name" style="text;align=left;verticalAlign=middle;spacingLeft=4;spacingRight=4;overflow=hidden;points=[[0,0.5],[1,0.5]];portConstraint=eastwest;rotatable=0;whiteSpace=wrap;html=1;shadow=0;rounded=1;labelBackgroundColor=none;" parent="6R78JGKRippowm32MuOg-13" vertex="1">
          <mxGeometry y="60" width="140" height="30" as="geometry" />
        </mxCell>
        <mxCell id="6R78JGKRippowm32MuOg-16" value="duration" style="text;align=left;verticalAlign=middle;spacingLeft=4;spacingRight=4;overflow=hidden;points=[[0,0.5],[1,0.5]];portConstraint=eastwest;rotatable=0;whiteSpace=wrap;html=1;shadow=0;rounded=1;labelBackgroundColor=none;" parent="6R78JGKRippowm32MuOg-13" vertex="1">
          <mxGeometry y="90" width="140" height="30" as="geometry" />
        </mxCell>
        <mxCell id="6R78JGKRippowm32MuOg-17" value="foreign_key_albums" style="text;align=left;verticalAlign=middle;spacingLeft=4;spacingRight=4;overflow=hidden;points=[[0,0.5],[1,0.5]];portConstraint=eastwest;rotatable=0;whiteSpace=wrap;html=1;shadow=0;rounded=1;labelBackgroundColor=none;" parent="6R78JGKRippowm32MuOg-13" vertex="1">
          <mxGeometry y="120" width="140" height="30" as="geometry" />
        </mxCell>
        <mxCell id="P653xnyVm-Fy-80D8Z4J-1" value="genres_artists" style="swimlane;fontStyle=0;childLayout=stackLayout;horizontal=1;startSize=30;horizontalStack=0;resizeParent=1;resizeParentMax=0;resizeLast=0;collapsible=1;marginBottom=0;whiteSpace=wrap;html=1;shadow=0;rounded=1;labelBackgroundColor=none;" parent="1" vertex="1">
          <mxGeometry x="330" y="40" width="140" height="120" as="geometry" />
        </mxCell>
        <mxCell id="P653xnyVm-Fy-80D8Z4J-2" value="ID" style="text;align=left;verticalAlign=middle;spacingLeft=4;spacingRight=4;overflow=hidden;points=[[0,0.5],[1,0.5]];portConstraint=eastwest;rotatable=0;whiteSpace=wrap;html=1;shadow=0;rounded=1;labelBackgroundColor=none;" parent="P653xnyVm-Fy-80D8Z4J-1" vertex="1">
          <mxGeometry y="30" width="140" height="30" as="geometry" />
        </mxCell>
        <mxCell id="P653xnyVm-Fy-80D8Z4J-3" value="genres_id" style="text;align=left;verticalAlign=middle;spacingLeft=4;spacingRight=4;overflow=hidden;points=[[0,0.5],[1,0.5]];portConstraint=eastwest;rotatable=0;whiteSpace=wrap;html=1;shadow=0;rounded=1;labelBackgroundColor=none;" parent="P653xnyVm-Fy-80D8Z4J-1" vertex="1">
          <mxGeometry y="60" width="140" height="30" as="geometry" />
        </mxCell>
        <mxCell id="P653xnyVm-Fy-80D8Z4J-4" value="artists_id" style="text;align=left;verticalAlign=middle;spacingLeft=4;spacingRight=4;overflow=hidden;points=[[0,0.5],[1,0.5]];portConstraint=eastwest;rotatable=0;whiteSpace=wrap;html=1;shadow=0;rounded=1;labelBackgroundColor=none;" parent="P653xnyVm-Fy-80D8Z4J-1" vertex="1">
          <mxGeometry y="90" width="140" height="30" as="geometry" />
        </mxCell>
        <mxCell id="P653xnyVm-Fy-80D8Z4J-5" value="artists_albums" style="swimlane;fontStyle=0;childLayout=stackLayout;horizontal=1;startSize=30;horizontalStack=0;resizeParent=1;resizeParentMax=0;resizeLast=0;collapsible=1;marginBottom=0;whiteSpace=wrap;html=1;shadow=0;rounded=1;labelBackgroundColor=none;" parent="1" vertex="1">
          <mxGeometry x="330" y="190" width="140" height="120" as="geometry" />
        </mxCell>
        <mxCell id="P653xnyVm-Fy-80D8Z4J-6" value="ID" style="text;align=left;verticalAlign=middle;spacingLeft=4;spacingRight=4;overflow=hidden;points=[[0,0.5],[1,0.5]];portConstraint=eastwest;rotatable=0;whiteSpace=wrap;html=1;shadow=0;rounded=1;labelBackgroundColor=none;" parent="P653xnyVm-Fy-80D8Z4J-5" vertex="1">
          <mxGeometry y="30" width="140" height="30" as="geometry" />
        </mxCell>
        <mxCell id="P653xnyVm-Fy-80D8Z4J-7" value="artists_id" style="text;align=left;verticalAlign=middle;spacingLeft=4;spacingRight=4;overflow=hidden;points=[[0,0.5],[1,0.5]];portConstraint=eastwest;rotatable=0;whiteSpace=wrap;html=1;shadow=0;rounded=1;labelBackgroundColor=none;" parent="P653xnyVm-Fy-80D8Z4J-5" vertex="1">
          <mxGeometry y="60" width="140" height="30" as="geometry" />
        </mxCell>
        <mxCell id="P653xnyVm-Fy-80D8Z4J-8" value="albums_id" style="text;align=left;verticalAlign=middle;spacingLeft=4;spacingRight=4;overflow=hidden;points=[[0,0.5],[1,0.5]];portConstraint=eastwest;rotatable=0;whiteSpace=wrap;html=1;shadow=0;rounded=1;labelBackgroundColor=none;" parent="P653xnyVm-Fy-80D8Z4J-5" vertex="1">
          <mxGeometry y="90" width="140" height="30" as="geometry" />
        </mxCell>
        <mxCell id="P653xnyVm-Fy-80D8Z4J-9" value="collection_tracks" style="swimlane;fontStyle=0;childLayout=stackLayout;horizontal=1;startSize=30;horizontalStack=0;resizeParent=1;resizeParentMax=0;resizeLast=0;collapsible=1;marginBottom=0;whiteSpace=wrap;html=1;shadow=0;rounded=1;labelBackgroundColor=none;" parent="1" vertex="1">
          <mxGeometry x="330" y="360" width="140" height="120" as="geometry" />
        </mxCell>
        <mxCell id="P653xnyVm-Fy-80D8Z4J-10" value="ID" style="text;align=left;verticalAlign=middle;spacingLeft=4;spacingRight=4;overflow=hidden;points=[[0,0.5],[1,0.5]];portConstraint=eastwest;rotatable=0;whiteSpace=wrap;html=1;shadow=0;rounded=1;labelBackgroundColor=none;" parent="P653xnyVm-Fy-80D8Z4J-9" vertex="1">
          <mxGeometry y="30" width="140" height="30" as="geometry" />
        </mxCell>
        <mxCell id="P653xnyVm-Fy-80D8Z4J-11" value="collection_id" style="text;align=left;verticalAlign=middle;spacingLeft=4;spacingRight=4;overflow=hidden;points=[[0,0.5],[1,0.5]];portConstraint=eastwest;rotatable=0;whiteSpace=wrap;html=1;shadow=0;rounded=1;labelBackgroundColor=none;" parent="P653xnyVm-Fy-80D8Z4J-9" vertex="1">
          <mxGeometry y="60" width="140" height="30" as="geometry" />
        </mxCell>
        <mxCell id="P653xnyVm-Fy-80D8Z4J-12" value="track_id" style="text;align=left;verticalAlign=middle;spacingLeft=4;spacingRight=4;overflow=hidden;points=[[0,0.5],[1,0.5]];portConstraint=eastwest;rotatable=0;whiteSpace=wrap;html=1;shadow=0;rounded=1;labelBackgroundColor=none;" parent="P653xnyVm-Fy-80D8Z4J-9" vertex="1">
          <mxGeometry y="90" width="140" height="30" as="geometry" />
        </mxCell>
        <mxCell id="P653xnyVm-Fy-80D8Z4J-13" value="collection" style="swimlane;fontStyle=0;childLayout=stackLayout;horizontal=1;startSize=30;horizontalStack=0;resizeParent=1;resizeParentMax=0;resizeLast=0;collapsible=1;marginBottom=0;whiteSpace=wrap;html=1;shadow=0;rounded=1;labelBackgroundColor=none;" parent="1" vertex="1">
          <mxGeometry x="520" y="390" width="140" height="120" as="geometry" />
        </mxCell>
        <mxCell id="P653xnyVm-Fy-80D8Z4J-14" value="ID" style="text;align=left;verticalAlign=middle;spacingLeft=4;spacingRight=4;overflow=hidden;points=[[0,0.5],[1,0.5]];portConstraint=eastwest;rotatable=0;whiteSpace=wrap;html=1;shadow=0;rounded=1;labelBackgroundColor=none;" parent="P653xnyVm-Fy-80D8Z4J-13" vertex="1">
          <mxGeometry y="30" width="140" height="30" as="geometry" />
        </mxCell>
        <mxCell id="P653xnyVm-Fy-80D8Z4J-15" value="name" style="text;align=left;verticalAlign=middle;spacingLeft=4;spacingRight=4;overflow=hidden;points=[[0,0.5],[1,0.5]];portConstraint=eastwest;rotatable=0;whiteSpace=wrap;html=1;shadow=0;rounded=1;labelBackgroundColor=none;" parent="P653xnyVm-Fy-80D8Z4J-13" vertex="1">
          <mxGeometry y="60" width="140" height="30" as="geometry" />
        </mxCell>
        <mxCell id="P653xnyVm-Fy-80D8Z4J-16" value="date" style="text;align=left;verticalAlign=middle;spacingLeft=4;spacingRight=4;overflow=hidden;points=[[0,0.5],[1,0.5]];portConstraint=eastwest;rotatable=0;whiteSpace=wrap;html=1;shadow=0;rounded=1;labelBackgroundColor=none;" parent="P653xnyVm-Fy-80D8Z4J-13" vertex="1">
          <mxGeometry y="90" width="140" height="30" as="geometry" />
        </mxCell>
        <mxCell id="P653xnyVm-Fy-80D8Z4J-18" style="edgeStyle=orthogonalEdgeStyle;rounded=1;orthogonalLoop=1;jettySize=auto;html=1;exitX=0;exitY=0.5;exitDx=0;exitDy=0;entryX=1;entryY=0.5;entryDx=0;entryDy=0;shadow=0;labelBackgroundColor=none;fontColor=default;" parent="1" source="P653xnyVm-Fy-80D8Z4J-3" target="6R78JGKRippowm32MuOg-2" edge="1">
          <mxGeometry relative="1" as="geometry" />
        </mxCell>
        <mxCell id="P653xnyVm-Fy-80D8Z4J-19" style="edgeStyle=orthogonalEdgeStyle;rounded=1;orthogonalLoop=1;jettySize=auto;html=1;exitX=1;exitY=0.5;exitDx=0;exitDy=0;entryX=0;entryY=0.5;entryDx=0;entryDy=0;shadow=0;labelBackgroundColor=none;fontColor=default;" parent="1" source="P653xnyVm-Fy-80D8Z4J-4" target="6R78JGKRippowm32MuOg-5" edge="1">
          <mxGeometry relative="1" as="geometry" />
        </mxCell>
        <mxCell id="P653xnyVm-Fy-80D8Z4J-20" style="edgeStyle=orthogonalEdgeStyle;rounded=1;orthogonalLoop=1;jettySize=auto;html=1;entryX=1;entryY=0.5;entryDx=0;entryDy=0;shadow=0;labelBackgroundColor=none;fontColor=default;" parent="1" source="P653xnyVm-Fy-80D8Z4J-7" target="6R78JGKRippowm32MuOg-5" edge="1">
          <mxGeometry relative="1" as="geometry" />
        </mxCell>
        <mxCell id="P653xnyVm-Fy-80D8Z4J-21" style="edgeStyle=orthogonalEdgeStyle;rounded=1;orthogonalLoop=1;jettySize=auto;html=1;entryX=1;entryY=0.5;entryDx=0;entryDy=0;shadow=0;labelBackgroundColor=none;fontColor=default;" parent="1" source="P653xnyVm-Fy-80D8Z4J-8" target="6R78JGKRippowm32MuOg-9" edge="1">
          <mxGeometry relative="1" as="geometry" />
        </mxCell>
        <mxCell id="P653xnyVm-Fy-80D8Z4J-29" style="edgeStyle=orthogonalEdgeStyle;rounded=1;orthogonalLoop=1;jettySize=auto;html=1;entryX=0;entryY=0.5;entryDx=0;entryDy=0;shadow=0;labelBackgroundColor=none;fontColor=default;" parent="1" source="6R78JGKRippowm32MuOg-17" target="6R78JGKRippowm32MuOg-9" edge="1">
          <mxGeometry relative="1" as="geometry" />
        </mxCell>
        <mxCell id="P653xnyVm-Fy-80D8Z4J-30" style="edgeStyle=orthogonalEdgeStyle;rounded=1;orthogonalLoop=1;jettySize=auto;html=1;entryX=1;entryY=0.5;entryDx=0;entryDy=0;shadow=0;labelBackgroundColor=none;fontColor=default;" parent="1" source="P653xnyVm-Fy-80D8Z4J-12" target="6R78JGKRippowm32MuOg-14" edge="1">
          <mxGeometry relative="1" as="geometry" />
        </mxCell>
        <mxCell id="P653xnyVm-Fy-80D8Z4J-31" style="edgeStyle=orthogonalEdgeStyle;rounded=1;orthogonalLoop=1;jettySize=auto;html=1;entryX=0;entryY=0.5;entryDx=0;entryDy=0;shadow=0;labelBackgroundColor=none;fontColor=default;" parent="1" source="P653xnyVm-Fy-80D8Z4J-11" target="P653xnyVm-Fy-80D8Z4J-14" edge="1">
          <mxGeometry relative="1" as="geometry" />
        </mxCell>
      </root>
    </mxGraphModel>
  </diagram>
</mxfile>
